<?xml version="1.0" encoding="UTF-8" standalone="no"?>
<!-- Created with Inkscape (http://www.inkscape.org/) -->
<svg
   xmlns:dc="http://purl.org/dc/elements/1.1/"
   xmlns:cc="http://creativecommons.org/ns#"
   xmlns:rdf="http://www.w3.org/1999/02/22-rdf-syntax-ns#"
   xmlns:svg="http://www.w3.org/2000/svg"
   xmlns="http://www.w3.org/2000/svg"
   xmlns:sodipodi="http://sodipodi.sourceforge.net/DTD/sodipodi-0.dtd"
   xmlns:inkscape="http://www.inkscape.org/namespaces/inkscape"
   width="600"
   height="794.36621"
   id="svg2"
   sodipodi:version="0.32"
   inkscape:version="0.46"
   version="1.0"
   sodipodi:docname="Silkeborg_Kommune_coa.svg"
   inkscape:output_extension="org.inkscape.output.svg.inkscape">
  <defs
     id="defs4" />
  <sodipodi:namedview
     id="base"
     pagecolor="#e0e0e0"
     bordercolor="#666666"
     borderopacity="1.0"
     inkscape:pageopacity="1"
     inkscape:pageshadow="2"
     inkscape:zoom="1.979899"
     inkscape:cx="338.01227"
     inkscape:cy="618.25882"
     inkscape:document-units="px"
     inkscape:current-layer="svg2"
     showgrid="false"
     inkscape:showpageshadow="false"
     inkscape:window-width="1680"
     inkscape:window-height="964"
     inkscape:window-x="-4"
     inkscape:window-y="-4" />
  <metadata
     id="metadata7">
    <rdf:RDF>
      <cc:Work
         rdf:about="">
        <dc:format>image/svg+xml</dc:format>
        <dc:type
           rdf:resource="http://purl.org/dc/dcmitype/StillImage" />
        <dc:title>Silkeborg Kommune COA</dc:title>
        <dc:date>2010-11-02</dc:date>
        <dc:creator>
          <cc:Agent>
            <dc:title>Erik Frohne</dc:title>
          </cc:Agent>
        </dc:creator>
        <dc:source>http://www.silkeborgkommune.dk/kommunen/designlinje - Seite 6</dc:source>
        <cc:license
           rdf:resource="http://creativecommons.org/licenses/by-sa/3.0/" />
      </cc:Work>
      <cc:License
         rdf:about="http://creativecommons.org/licenses/by-sa/3.0/">
        <cc:permits
           rdf:resource="http://creativecommons.org/ns#Reproduction" />
        <cc:permits
           rdf:resource="http://creativecommons.org/ns#Distribution" />
        <cc:requires
           rdf:resource="http://creativecommons.org/ns#Notice" />
        <cc:requires
           rdf:resource="http://creativecommons.org/ns#Attribution" />
        <cc:permits
           rdf:resource="http://creativecommons.org/ns#DerivativeWorks" />
        <cc:requires
           rdf:resource="http://creativecommons.org/ns#ShareAlike" />
      </cc:License>
    </rdf:RDF>
  </metadata>
  <path
     id="path2406"
     style="fill:#004b8d;fill-opacity:1;fill-rule:evenodd;stroke:none;stroke-width:1px;stroke-linecap:butt;stroke-linejoin:miter;stroke-opacity:1"
     d="M 236.96429,82.93764 L 277.5,33.47335 L 277.5,117.5805 L 246.60714,117.5805 L 236.96429,82.93764 z M 284.64286,117.5805 L 311.60714,117.5805 L 311.60714,21.33049 L 299.10714,5.43764 L 284.64286,21.33049 L 284.64286,117.5805 z M 319.46429,117.5805 L 350.71429,117.5805 L 359.82143,82.93764 L 319.46429,32.40192 L 319.46429,117.5805 z M 249.82143,126.15192 L 347.85714,126.15192 L 340.35714,154.54478 L 257.32143,154.54478 L 249.82143,126.15192 z M 255.89286,162.60317 L 284.82143,162.60317 C 280.35715,171.94841 270.66464,195.63498 246.78571,197.04478 C 232.98478,197.85959 212.53009,188.88543 179.28571,160.61621 C 172.10961,154.51404 154.59062,140.10886 122.67857,139.90193 C 96.617028,139.73178 84.393813,153.55803 85.535715,160.25907 C 87.981538,174.61193 105.85251,176.84419 121.96083,190.08228 C 128.22562,195.23079 137.3379,210.94185 143.03571,230.25907 L 102.5,215.43764 C 101.887,190.59153 93.778625,178.47103 86.594633,170.81553 C 80.023783,163.81342 73.927482,159.64685 73.928572,145.97335 C 73.929133,138.93123 79.033704,110.71688 128.92858,112.04478 C 186.11065,113.56662 212.32276,155.79346 240,191.50907 C 251.98714,177.17012 253.02909,171.18853 255.89286,162.60317 z M 341.69642,162.60317 L 312.76785,162.60317 C 317.23213,171.94841 326.92464,196.0148 350.80357,197.4246 C 364.6045,198.23941 385.05919,189.26525 418.30357,160.99603 C 425.47967,154.89386 442.99866,140.48868 474.91071,140.28175 C 500.97225,140.1116 513.19546,153.93785 512.05356,160.63889 C 509.60774,174.99175 491.73677,177.22401 475.62845,190.4621 C 469.36366,195.61061 460.25138,211.32167 454.55357,230.63889 L 495.08928,215.81746 C 495.70228,190.97135 503.81065,178.85085 510.99464,171.19535 C 517.56549,164.19324 523.6618,160.02667 523.66071,146.35317 C 523.66014,139.31105 518.55557,111.0967 468.6607,112.4246 C 411.47863,113.94644 385.26652,156.17328 357.58928,191.88889 C 345.60214,177.54994 344.56019,171.18853 341.69642,162.60317 z M 96.428572,252.04478 C 101.24071,242.16486 102.266,232.7057 102.85714,223.29478 L 146.07143,240.0805 C 148.23478,250.31859 147.58723,260.55669 146.96429,270.79478 L 96.428572,252.04478 z M 501.46095,252.22336 C 496.64881,242.34344 495.62352,232.88428 495.03238,223.47336 L 451.8181,240.25908 C 449.65475,250.49717 450.3023,260.73527 450.92524,270.97336 L 501.46095,252.22336 z M 41.964286,331.68764 L 90.535715,298.65192 L 138.39286,331.68764 L 41.964286,331.68764 z M 459.82143,331.68764 L 509.46429,298.65192 L 556.60714,331.68764 L 459.82143,331.68764 z M 216.60714,219.54478 L 235.71429,219.54478 L 239.10714,238.65192 L 250.71429,238.65192 L 255,219.54478 L 271.78571,219.54478 L 276.78571,238.65192 L 284.46429,238.65192 L 291.42857,219.54478 L 307.5,219.54478 L 313.03571,238.65192 L 321.60714,238.65192 L 326.42857,219.54478 L 342.5,219.54478 L 348.03572,238.65192 L 358.92857,238.65192 L 363.57143,219.54478 L 381.07143,219.54478 L 368.92857,261.68764 L 368.92857,354.90192 L 383.03572,354.90192 L 387.14286,376.50907 L 399.64286,376.50907 L 405.35714,354.90192 L 424.10714,354.90192 L 429.28572,376.50907 L 443.75,376.50907 L 450.35714,354.90192 L 461.60714,354.90192 L 461.78572,341.3305 L 555,341.3305 L 555,420.43764 L 529.10714,443.8305 L 529.10714,469.36621 L 576.96429,546.68764 L 358.75,546.68764 L 358.75,469.72335 C 358.75,454.5942 354.30353,441.30144 345.66239,430.95731 C 334.05301,417.05997 316.41676,408.48608 297.85714,407.93764 C 282.38427,407.48042 267.43598,414.21557 256.3971,425.39892 C 245.39261,436.54744 238.39286,452.11252 238.39286,469.36621 L 238.39286,546.68764 L 20.535714,546.68764 L 68.928572,469.36621 L 68.928572,443.8305 L 43.392857,420.25907 L 43.392857,341.3305 L 135.71429,341.3305 L 135.89286,354.90192 L 148.92857,354.90192 L 154.82143,376.50907 L 168.39286,376.50907 L 174.46429,354.90192 L 192.85714,354.90192 L 198.03571,376.50907 L 210.89286,376.50907 L 215.17857,354.90192 L 229.10714,354.90192 L 229.10714,261.68764 L 216.60714,219.54478 z M 254.55357,329.54478 L 287.94643,329.54478 L 287.94643,288.65192 C 287.94643,282.7827 284.03434,272.50082 271.16072,272.49121 C 258.34449,272.48165 254.55357,282.97893 254.55357,288.65192 L 254.55357,329.54478 z M 308.57143,329.143 L 341.96429,329.143 L 341.96429,288.25014 C 341.96429,282.38092 338.0522,272.09904 325.17858,272.08943 C 312.36235,272.07987 308.57143,282.57715 308.57143,288.25014 L 308.57143,329.143 z M 491.71822,392.52418 L 520.60322,392.52418 L 520.51393,368.40164 C 520.51393,363.32473 517.12995,354.35167 505.9942,354.34336 C 494.9081,354.33509 491.62893,363.49447 491.62893,368.40164 L 491.71822,392.52418 z M 75.959288,392.52418 L 104.84429,392.52418 L 104.755,368.40164 C 104.755,363.32473 101.37102,354.43085 90.235268,354.42254 C 79.149168,354.41427 75.869998,363.49447 75.869998,368.40164 L 75.959288,392.52418 z M 20.708127,582.48671 C 53.481866,622.69176 134.28677,616.9031 153.79573,564.30397 C 185.02185,626.88814 272.99088,619.50671 299.25769,563.79889 C 321.54284,618.04446 416.00191,624.89146 443.45697,563.04128 C 474.02804,624.80846 557.05938,613.3221 579.06995,578.4461 C 568.20604,598.73333 556.56294,619.02057 541.6943,639.3078 C 479.38851,649.04462 462.42797,624.60821 445.47727,600.16438 C 417.92834,654.25453 334.49259,659.91439 299.25769,600.922 C 268.29098,663.77236 181.19827,651.86453 155.56349,601.42707 C 134.94819,637.95643 104.13483,649.86781 59.093924,641.3281 L 20.708127,582.48671 z M 104.20831,695.32508 C 100.08601,691.31226 80.305993,669.10733 74.973073,662.07064 C 107.26834,664.12533 141.17769,649.42299 152.91185,617.78591 C 184.13796,680.37008 272.10699,672.98865 298.3738,617.28083 C 320.65895,671.5264 415.11803,678.3734 442.57309,616.52322 C 460.00914,651.75181 494.51016,663.15152 525.0221,659.97357 C 522.939,664.11922 499.44053,690.30996 495.11631,693.12063 C 468.14426,687.59753 456.36645,670.62372 444.59339,653.64632 C 417.04446,707.73647 333.6087,713.39633 298.3738,654.40394 C 267.40709,717.2543 180.31438,705.34647 154.6796,654.90901 C 142.01561,677.34903 125.50321,690.49907 104.20831,695.32508 z M 140.3964,730.20346 C 132.63357,723.78397 122.49511,713.03958 118.82407,709.00116 C 134.54309,701.79049 147.52637,689.57775 153.922,672.33415 C 185.14812,734.91832 273.11715,727.53689 299.38396,671.82907 C 321.66911,726.07464 416.12818,732.92164 443.58324,671.07146 C 452.23065,688.54308 465.07547,700.1536 479.54937,707.03154 C 469.71084,716.46531 464.66615,721.87828 458.57712,725.48172 C 453.82158,720.04416 449.71227,714.11958 445.60354,708.19456 C 418.05461,762.28471 334.61886,767.94457 299.38396,708.95218 C 268.41725,771.80254 181.32454,759.89471 155.68976,709.45725 C 151.11,717.57238 146.02694,724.47255 140.3964,730.20346 z"
     sodipodi:nodetypes="cccccccccccccccccccccccsscssccsssccccsscssccssscccccccccccccccccccccccccccccccccccccccccccccccccccccccccssscccccccccccccccccccccccscccccscccccscccccsccccccccccccccccccccccccccccccccccc" />
</svg>
